<svg xmlns="http://www.w3.org/2000/svg" width="552.5" height="62.719" viewBox="0 0 552.5 62.719">
  <defs>
    <style>
      .cls-1 {
        fill: #fff;
        fill-rule: evenodd;
      }
    </style>
  </defs>
  <path id="Memory_Color" data-name="Memory Color" class="cls-1" d="M149.912,136.116a0.3,0.3,0,0,0,.195.039,2.339,2.339,0,0,0,.039.39,2.575,2.575,0,0,1,.039.39q0.076,2.262.195,4.875t0.195,5.3q0.077,2.691.156,5.343t0.156,4.836a5.9,5.9,0,0,0,1.092,3.549,4.683,4.683,0,0,0,3.432,1.131q1.558,0,3.042-.078t3.042-.234a3.208,3.208,0,0,0,3.666-4.134q0-2.418-.039-5.226t-0.078-5.655q-0.041-2.847-.078-5.655t-0.039-5.226q0-7.1.078-13.728t0.156-13.65a10.532,10.532,0,0,0,0-1.794q-0.079-.936-0.234-1.794-0.626-4.29-4.836-4.68A24.628,24.628,0,0,0,157.01,100q-1.521.039-3,.2a9,9,0,0,0-2.574.7,3.618,3.618,0,0,0-1.872,1.95q-0.626,1.092-1.131,2.145t-1.131,2.145q-1.8,3.588-3.588,6.825t-3.588,6.825a6.45,6.45,0,0,1-.546.9q-0.314.429-.624,0.819a1.627,1.627,0,0,1-3.2,0q-0.234-.312-0.468-0.585a2.826,2.826,0,0,1-.39-0.585q-2.654-4.68-5.343-9.2t-5.5-9.2a5.868,5.868,0,0,0-1.482-1.755,4.237,4.237,0,0,0-2.106-.819q-1.717-.156-3.393-0.273a28.385,28.385,0,0,0-3.315-.039,4.556,4.556,0,0,0-3.081,1.053,5.109,5.109,0,0,0-.9,3.237v0.546q0,10.14.039,19.7t0.039,19.617q0,1.248-.039,2.925t-0.117,3.432q-0.079,1.755-.156,3.432t-0.078,2.847a5.028,5.028,0,0,0,1.014,3.276,4.459,4.459,0,0,0,2.808,1.56q1.481,0.155,2.964.273a23.81,23.81,0,0,0,3.042.039q3.352-.158,4.563-1.443t1.209-4.719v-18.1q0-2.106.429-2.028a2.225,2.225,0,0,1,1.053,1.17,27.545,27.545,0,0,1,1.989,4.251,32.579,32.579,0,0,0,2.067,4.485,5.811,5.811,0,0,0,1.482,1.755,3.848,3.848,0,0,0,2.184.741q1.247,0,2.457-.078a13.021,13.021,0,0,1,2.457.078,5.463,5.463,0,0,0,5.694-3.51,1.341,1.341,0,0,1,.234-0.429q0.154-.195.312-0.429,1.09-1.95,2.145-3.822t2.145-3.822A0.313,0.313,0,0,1,149.912,136.116Zm47.268,11.817q-0.977.078-2.379,0.117t-3.432.078q-2.03.039-4.992,0.039a3.2,3.2,0,0,1-2.067-.468,3.052,3.052,0,0,1-.585-2.028q-0.079-1.4-.039-2.691t0.039-2.613a1.816,1.816,0,0,1,.39-1.365,2.408,2.408,0,0,1,1.4-.429,17.032,17.032,0,0,1,1.989-.039q0.974,0.039,1.989.117,0.856,0.078,1.794.156t1.872,0.078q3.744,0,3.9-3.51a25.184,25.184,0,0,0-.039-3.12q-0.117-1.56-.195-3.12a2.536,2.536,0,0,0-.819-1.872,3.567,3.567,0,0,0-1.833-.78,27.736,27.736,0,0,0-3.588-.234h-3.822a7.464,7.464,0,0,1-2.223-.351,1.562,1.562,0,0,1-1.131-1.677q0.076-2.574.039-4.329a15.312,15.312,0,0,1,.156-2.886,3.323,3.323,0,0,1,.78-1.755,3.359,3.359,0,0,1,1.911-.858,19.757,19.757,0,0,1,4.134-.312l3.978,0.156q1.949,0.078,3.978.234a3.841,3.841,0,0,0,3.393-1.17,5.813,5.813,0,0,0,1.365-3.042,15.23,15.23,0,0,0-.546-7.878,3.635,3.635,0,0,0-2.067-2.145,7.325,7.325,0,0,0-3.081-.741q-2.34.079-4.719,0.234t-4.875.312l-2.457.156q-1.21.078-2.535,0.078-2.029.078-4.056,0.039t-4.056.039a4.344,4.344,0,0,0-2.847.975,5.046,5.046,0,0,0-1.4,2.3A12.419,12.419,0,0,0,170,106.71q-0.08,1.677-.078,3.315,0.076,10.452.156,22.386t0.468,24.726a4.571,4.571,0,0,0,1.131,2.964,4.384,4.384,0,0,0,2.769,1.4,65,65,0,0,0,12.207.585q6.355-.274,13.455-0.429,2.963-.157,3.276-2.886,0.155-1.95.273-3.432a30.713,30.713,0,0,0,.039-3.51q-0.08-4.134-4.6-3.978Q198.155,147.855,197.18,147.933Zm50.778-11.817a0.3,0.3,0,0,0,.195.039,2.339,2.339,0,0,0,.039.39,2.575,2.575,0,0,1,.039.39q0.077,2.262.195,4.875t0.2,5.3q0.076,2.691.156,5.343t0.156,4.836a5.9,5.9,0,0,0,1.092,3.549,4.683,4.683,0,0,0,3.432,1.131q1.559,0,3.042-.078t3.042-.234a3.208,3.208,0,0,0,3.666-4.134q0-2.418-.039-5.226t-0.078-5.655q-0.041-2.847-.078-5.655t-0.039-5.226q0-7.1.078-13.728t0.156-13.65a10.532,10.532,0,0,0,0-1.794q-0.079-.936-0.234-1.794-0.626-4.29-4.836-4.68a24.628,24.628,0,0,0-3.081-.117q-1.521.039-3,.2a9,9,0,0,0-2.574.7,3.618,3.618,0,0,0-1.872,1.95q-0.626,1.092-1.131,2.145t-1.131,2.145q-1.8,3.588-3.588,6.825t-3.588,6.825a6.45,6.45,0,0,1-.546.9q-0.314.429-.624,0.819a1.627,1.627,0,0,1-3.2,0q-0.234-.312-0.468-0.585a2.826,2.826,0,0,1-.39-0.585q-2.654-4.68-5.343-9.2t-5.5-9.2a5.868,5.868,0,0,0-1.482-1.755,4.237,4.237,0,0,0-2.106-.819q-1.718-.156-3.393-0.273a28.385,28.385,0,0,0-3.315-.039,4.556,4.556,0,0,0-3.081,1.053,5.109,5.109,0,0,0-.9,3.237v0.546q0,10.14.039,19.7t0.039,19.617q0,1.248-.039,2.925t-0.117,3.432q-0.079,1.755-.156,3.432t-0.078,2.847a5.028,5.028,0,0,0,1.014,3.276,4.459,4.459,0,0,0,2.808,1.56q1.481,0.155,2.964.273a23.81,23.81,0,0,0,3.042.039q3.353-.158,4.563-1.443t1.209-4.719v-18.1q0-2.106.429-2.028a2.225,2.225,0,0,1,1.053,1.17,27.545,27.545,0,0,1,1.989,4.251,32.579,32.579,0,0,0,2.067,4.485,5.811,5.811,0,0,0,1.482,1.755,3.848,3.848,0,0,0,2.184.741q1.247,0,2.457-.078a13.021,13.021,0,0,1,2.457.078,5.463,5.463,0,0,0,5.694-3.51,1.341,1.341,0,0,1,.234-0.429q0.155-.195.312-0.429,1.09-1.95,2.145-3.822t2.145-3.822A0.313,0.313,0,0,1,247.958,136.116ZM314.141,125.7q-0.234-1.95-.7-4.056a35.815,35.815,0,0,0-3.042-8.58,26.924,26.924,0,0,0-5.46-7.254,22.812,22.812,0,0,0-5.967-4.134,18.1,18.1,0,0,0-6.435-1.716,17.488,17.488,0,0,0-6.591.819,21.576,21.576,0,0,0-6.357,3.315,26.354,26.354,0,0,0-4.563,4.6,37.83,37.83,0,0,0-3.549,5.538,38.84,38.84,0,0,0-3.588,12.948,42.506,42.506,0,0,0,.936,13.494,34.158,34.158,0,0,0,3.081,8.463,28.658,28.658,0,0,0,5.421,7.215,22.177,22.177,0,0,0,5.811,4.017,17.836,17.836,0,0,0,6.318,1.677,18.377,18.377,0,0,0,6.474-.7,21.531,21.531,0,0,0,6.279-3.042,24.332,24.332,0,0,0,6.63-7.332,35.7,35.7,0,0,0,4.329-10.14,48.947,48.947,0,0,0,1.365-12.012Q314.374,127.653,314.141,125.7ZM285.2,120.4a13.649,13.649,0,0,1,1.482-2.223,12.252,12.252,0,0,1,1.95-1.911,6.078,6.078,0,0,1,3.432-1.053,5.383,5.383,0,0,1,3.276,1.287q0.936,0.858,1.755,1.755a7.055,7.055,0,0,1,1.287,1.989,23.773,23.773,0,0,1-.078,22.776,5.733,5.733,0,0,1-1.053,1.56q-0.665.7-1.365,1.326a5.415,5.415,0,0,1-4.017,1.755,5.856,5.856,0,0,1-4.1-1.911,17.44,17.44,0,0,1-3.12-4.68,17.835,17.835,0,0,1-1.56-4.563,17.627,17.627,0,0,1-.312-4.641A22.523,22.523,0,0,1,285.2,120.4h0Zm66.846,15.678a20.387,20.387,0,0,0,4.056-9.984q1.17-9.594-3.666-16.029T337.7,101.6q-1.327-.234-2.535-0.351t-2.457-.273a40.352,40.352,0,0,0-10.92.078,2.649,2.649,0,0,0-2.34,2.028,6.272,6.272,0,0,0-.234.9,4.917,4.917,0,0,0-.078.9q-0.391,11.778-.273,23.478t0.429,24.1q0,1.482.117,2.925t0.273,2.925q0.389,3.587,3.666,3.822a20.82,20.82,0,0,0,3.354.039q1.638-.117,3.354-0.273a3.574,3.574,0,0,0,2.067-.936,3.692,3.692,0,0,0,.819-2.184,16.132,16.132,0,0,0,.156-2.262q0-1.17-.078-2.262,0-1.482-.117-2.925t-0.195-2.847a4.628,4.628,0,0,1,1.248,1.053q0.468,0.585,1.014,1.209,1.638,1.716,3.276,3.471t3.432,3.393a14.362,14.362,0,0,0,4.212,2.691,16.537,16.537,0,0,0,4.836,1.209,5.4,5.4,0,0,0,5.46-2.34,10.321,10.321,0,0,0,1.95-5.616,5.123,5.123,0,0,0-.39-2.925,5.448,5.448,0,0,0-2.34-1.755q-0.936-.39-1.872-0.741a12.269,12.269,0,0,1-1.872-.9q-1.717-.936-3.315-1.872t-3.159-2.028a4.709,4.709,0,0,1-1.092-.936A10.915,10.915,0,0,0,343,141.3,14.083,14.083,0,0,0,352.049,136.077Zm-19.266-20.826a6.3,6.3,0,0,1,2.535-.117,10.048,10.048,0,0,1,2.613.741,8.62,8.62,0,0,1,2.262,1.443,5.624,5.624,0,0,1,1.482,1.989,7.471,7.471,0,0,1,.819,4.095,8.441,8.441,0,0,1-1.287,3.783,9.272,9.272,0,0,1-2.964,2.886,9.061,9.061,0,0,1-4.29,1.326,1.848,1.848,0,0,1-.507-0.078q-0.275-.078-0.663-0.156V115.251Zm50.076,30.81a24.062,24.062,0,0,1-3.627.195q-1.834-.039-3.627.039-1.016,0-1.989-.039a10.331,10.331,0,0,0-1.989.117,3.493,3.493,0,0,0-3.354,3.588,29.821,29.821,0,0,0-.117,3.432,18.678,18.678,0,0,0,.351,3.276,5.674,5.674,0,0,0,1.365,3.315,6.462,6.462,0,0,0,3.315,1.521,29.277,29.277,0,0,0,10.842,0,20.3,20.3,0,0,0,15.584-12.324,27.433,27.433,0,0,0,2.078-6.084,39.645,39.645,0,0,0,.824-6.318q0.154-6.864.156-14.313V108.231q0-1.248-.119-2.652a9.319,9.319,0,0,0-.587-2.613,4.954,4.954,0,0,0-1.372-1.989,4.088,4.088,0,0,0-2.547-.858,22.4,22.4,0,0,0-4.039-.117q-2.235.117-4.037,0.273a3.966,3.966,0,0,0-1.8.741,2.364,2.364,0,0,0-.7,2.145q0.077,1.326.156,3.2t0.156,3.861q0.077,1.989.156,3.861t0.078,3.12a14.826,14.826,0,0,1-.741,4.914,10.221,10.221,0,0,1-1.833,3.354,4.408,4.408,0,0,1-2.418,1.521,3.183,3.183,0,0,1-2.5-.507,6.138,6.138,0,0,1-2.028-2.73,14.716,14.716,0,0,1-1.014-5.148q-0.157-2.418-.078-5.577t0-5.5q0-1.092-.039-2.184a21.185,21.185,0,0,0-.195-2.184,3.8,3.8,0,0,0-1.248-2.5,4.19,4.19,0,0,0-2.73-.624,14.713,14.713,0,0,1-2.613.078q-1.287-.078-2.613-0.078c-0.468,0-.95-0.013-1.443-0.039s-1-.039-1.521-0.039a3.4,3.4,0,0,0-1.989.624,2.736,2.736,0,0,0-.819,1.872,49.692,49.692,0,0,0-.234,6.24q0.076,2.184.117,5.031t0.234,5.928a57.711,57.711,0,0,0,.741,6.24,28.243,28.243,0,0,0,1.638,5.85,17.413,17.413,0,0,0,2.886,4.8,10.126,10.126,0,0,0,4.524,3.042,28.633,28.633,0,0,0,7.683,1.56,41.721,41.721,0,0,0,8-.312q-0.86,4.524-4.914,5.226h0Zm84.279,14.859a18.829,18.829,0,0,0,5.733-3.354,22.556,22.556,0,0,0,6.942-10.959q0.234-.936.429-1.989a6.965,6.965,0,0,0,.078-2.067,3.853,3.853,0,0,0-.663-1.794,3.7,3.7,0,0,0-1.794-1.248q-1.094-.468-2.223-0.858a19.209,19.209,0,0,0-2.223-.624,3.617,3.617,0,0,0-2.5.078,4.4,4.4,0,0,0-1.716,1.794,20.471,20.471,0,0,1-4.836,6.162,5.25,5.25,0,0,1-8.5-1.4,21.289,21.289,0,0,1-2.73-7.176,23.267,23.267,0,0,1-.819-9.126,40.61,40.61,0,0,1,2.067-8.97,11.586,11.586,0,0,1,.936-1.794,18.225,18.225,0,0,1,1.17-1.638,4.207,4.207,0,0,1,.819-1.014,10.614,10.614,0,0,1,1.053-.858,4.4,4.4,0,0,1,6.552,2.34,6.761,6.761,0,0,1,.351,1.014c0.078,0.312.168,0.624,0.273,0.936a3.462,3.462,0,0,0,2.73,2.574,9.354,9.354,0,0,0,3.939.234,7.163,7.163,0,0,0,3.471-1.716,5.873,5.873,0,0,0,2.106-3.51,8.853,8.853,0,0,0-.39-4.134,16.107,16.107,0,0,0-3.354-5.5,18.825,18.825,0,0,0-5.3-4.017,20.036,20.036,0,0,0-6.513-2.028,16.371,16.371,0,0,0-6.9.546,17.829,17.829,0,0,0-5.928,3.042,25.993,25.993,0,0,0-4.836,4.875,32.159,32.159,0,0,0-3.549,5.85,24.823,24.823,0,0,0-1.989,6.045,76.681,76.681,0,0,0-1.131,8.619,50.5,50.5,0,0,0,.117,9.087A40.916,40.916,0,0,0,439.838,147a22.694,22.694,0,0,0,3.978,7.332,20.7,20.7,0,0,0,6.591,5.265,22.863,22.863,0,0,0,9.672,2.3A17.018,17.018,0,0,0,467.138,160.92ZM529.967,125.7q-0.234-1.95-.7-4.056a35.815,35.815,0,0,0-3.042-8.58,26.924,26.924,0,0,0-5.46-7.254,22.812,22.812,0,0,0-5.967-4.134,18.1,18.1,0,0,0-6.435-1.716,17.488,17.488,0,0,0-6.591.819,21.576,21.576,0,0,0-6.357,3.315,26.354,26.354,0,0,0-4.563,4.6,37.83,37.83,0,0,0-3.549,5.538,38.84,38.84,0,0,0-3.588,12.948,42.506,42.506,0,0,0,.936,13.494,34.158,34.158,0,0,0,3.081,8.463,28.658,28.658,0,0,0,5.421,7.215,22.177,22.177,0,0,0,5.811,4.017,17.836,17.836,0,0,0,6.318,1.677,18.377,18.377,0,0,0,6.474-.7,21.531,21.531,0,0,0,6.279-3.042,24.332,24.332,0,0,0,6.63-7.332,35.7,35.7,0,0,0,4.329-10.14,48.947,48.947,0,0,0,1.365-12.012Q530.2,127.653,529.967,125.7Zm-28.938-5.3a13.649,13.649,0,0,1,1.482-2.223,12.252,12.252,0,0,1,1.95-1.911,6.078,6.078,0,0,1,3.432-1.053,5.383,5.383,0,0,1,3.276,1.287q0.936,0.858,1.755,1.755a7.055,7.055,0,0,1,1.287,1.989,23.773,23.773,0,0,1-.078,22.776,5.733,5.733,0,0,1-1.053,1.56q-0.665.7-1.365,1.326a5.415,5.415,0,0,1-4.017,1.755,5.856,5.856,0,0,1-4.095-1.911,17.44,17.44,0,0,1-3.12-4.68,17.835,17.835,0,0,1-1.56-4.563,17.627,17.627,0,0,1-.312-4.641,22.523,22.523,0,0,1,2.418-11.466h0Zm51.675,23.6a20.329,20.329,0,0,0-.039-2.145q-0.158-7.8-.312-16.224T551.885,109.4q0-1.638-.078-3.2t-0.234-3.12a3.264,3.264,0,0,0-.663-1.833,2.488,2.488,0,0,0-1.677-.9q-2.966-.156-5.967-0.156t-5.889.234a2.262,2.262,0,0,0-2.067,1.443,7.256,7.256,0,0,0-.507,2.691q0.154,11.388.312,23.205t0.312,23.205q0.154,1.4.273,2.808t0.351,2.808a5.889,5.889,0,0,0,1.716,3.471,5.725,5.725,0,0,0,3.432,1.6,54.856,54.856,0,0,0,9.672.234q4.835-.314,9.75-0.468c0.415-.053.858-0.092,1.326-0.117s0.936-.066,1.4-0.117a5.4,5.4,0,0,0,2.457-.975,3.665,3.665,0,0,0,1.287-2.3,18.718,18.718,0,0,0,0-8.97,4.231,4.231,0,0,0-1.053-2.067,2.8,2.8,0,0,0-2.067-.741q-2.106-.078-4.173-0.078h-4.173q-0.7,0-1.4.039c-0.468.026-.989,0.065-1.56,0.117Q552.665,145.047,552.7,143.994ZM617.951,125.7q-0.234-1.95-.7-4.056a35.815,35.815,0,0,0-3.042-8.58,26.924,26.924,0,0,0-5.46-7.254,22.812,22.812,0,0,0-5.967-4.134,18.1,18.1,0,0,0-6.435-1.716,17.488,17.488,0,0,0-6.591.819A21.576,21.576,0,0,0,583.4,104.1a26.354,26.354,0,0,0-4.563,4.6,37.83,37.83,0,0,0-3.549,5.538,38.84,38.84,0,0,0-3.588,12.948,42.506,42.506,0,0,0,.936,13.494,34.158,34.158,0,0,0,3.081,8.463,28.658,28.658,0,0,0,5.421,7.215,22.177,22.177,0,0,0,5.811,4.017,17.836,17.836,0,0,0,6.318,1.677,18.377,18.377,0,0,0,6.474-.7,21.531,21.531,0,0,0,6.279-3.042,24.332,24.332,0,0,0,6.63-7.332,35.7,35.7,0,0,0,4.329-10.14,48.947,48.947,0,0,0,1.365-12.012Q618.184,127.653,617.951,125.7Zm-28.938-5.3a13.649,13.649,0,0,1,1.482-2.223,12.252,12.252,0,0,1,1.95-1.911,6.078,6.078,0,0,1,3.432-1.053,5.383,5.383,0,0,1,3.276,1.287q0.936,0.858,1.755,1.755a7.055,7.055,0,0,1,1.287,1.989,23.773,23.773,0,0,1-.078,22.776,5.733,5.733,0,0,1-1.053,1.56q-0.664.7-1.365,1.326a5.415,5.415,0,0,1-4.017,1.755,5.856,5.856,0,0,1-4.1-1.911,17.44,17.44,0,0,1-3.12-4.68,17.835,17.835,0,0,1-1.56-4.563,17.627,17.627,0,0,1-.312-4.641,22.523,22.523,0,0,1,2.418-11.466h0Zm66.846,15.678a20.387,20.387,0,0,0,4.056-9.984q1.17-9.594-3.666-16.029T641.507,101.6q-1.327-.234-2.535-0.351t-2.457-.273a40.352,40.352,0,0,0-10.92.078,2.649,2.649,0,0,0-2.34,2.028,6.272,6.272,0,0,0-.234.9,4.917,4.917,0,0,0-.078.9q-0.391,11.778-.273,23.478t0.429,24.1q0,1.482.117,2.925t0.273,2.925q0.389,3.587,3.666,3.822a20.82,20.82,0,0,0,3.354.039q1.638-.117,3.354-0.273a3.574,3.574,0,0,0,2.067-.936,3.692,3.692,0,0,0,.819-2.184,16.132,16.132,0,0,0,.156-2.262q0-1.17-.078-2.262,0-1.482-.117-2.925t-0.2-2.847a4.628,4.628,0,0,1,1.248,1.053q0.468,0.585,1.014,1.209,1.638,1.716,3.276,3.471t3.432,3.393A14.362,14.362,0,0,0,649.7,160.3a16.537,16.537,0,0,0,4.836,1.209,5.4,5.4,0,0,0,5.46-2.34,10.321,10.321,0,0,0,1.95-5.616,5.123,5.123,0,0,0-.39-2.925,5.448,5.448,0,0,0-2.34-1.755q-0.936-.39-1.872-0.741a12.269,12.269,0,0,1-1.872-.9q-1.718-.936-3.315-1.872T649,143.331a4.709,4.709,0,0,1-1.092-.936,10.915,10.915,0,0,0-1.092-1.092A14.083,14.083,0,0,0,655.859,136.077Zm-19.266-20.826a6.3,6.3,0,0,1,2.535-.117,10.048,10.048,0,0,1,2.613.741A8.62,8.62,0,0,1,644,117.318a5.624,5.624,0,0,1,1.482,1.989,7.471,7.471,0,0,1,.819,4.095,8.441,8.441,0,0,1-1.287,3.783,9.272,9.272,0,0,1-2.964,2.886,9.061,9.061,0,0,1-4.29,1.326,1.848,1.848,0,0,1-.507-0.078q-0.274-.078-0.663-0.156V115.251Z" transform="translate(-109.469 -99.5)"/>
</svg>
